<svg width="32" height="32" viewBox="0 0 32 32" fill="none" xmlns="http://www.w3.org/2000/svg">
  <!-- Background -->
  <rect width="32" height="32" rx="4" fill="url(#faviconGradient)"/>
  
  <!-- Crystal Symbol Scaled -->
  <g transform="translate(16, 16) scale(0.7) translate(-16, -16)">
    <!-- Outer crystal frame -->
    <path d="M16 6 L22 10 L22 18 L16 22 L10 18 L10 10 Z" fill="white" opacity="0.15"/>
    
    <!-- Central diamond -->
    <path d="M16 11 L19 14 L16 17 L13 14 Z" fill="white"/>
    
    <!-- Data rays -->
    <path d="M16 8 L16 11 M16 17 L16 20 M13 11 L10 9 M19 11 L22 9 M13 17 L10 19 M19 17 L22 19" 
          stroke="white" stroke-width="1.5" stroke-linecap="round" opacity="0.8"/>
    
    <!-- Energy points -->
    <circle cx="16" cy="8" r="1" fill="white" opacity="0.9"/>
    <circle cx="16" cy="20" r="1" fill="white" opacity="0.9"/>
    <circle cx="10" cy="9" r="0.8" fill="white" opacity="0.6"/>
    <circle cx="22" cy="9" r="0.8" fill="white" opacity="0.6"/>
    <circle cx="10" cy="19" r="0.8" fill="white" opacity="0.6"/>
    <circle cx="22" cy="19" r="0.8" fill="white" opacity="0.6"/>
  </g>
  
  <!-- Favicon Gradient -->
  <defs>
    <linearGradient id="faviconGradient" x1="0%" y1="0%" x2="100%" y2="100%">
      <stop offset="0%" style="stop-color:#0f172a;stop-opacity:1" />
      <stop offset="100%" style="stop-color:#1e40af;stop-opacity:1" />
    </linearGradient>
  </defs>
</svg>
